<svg width="90" height="90" viewBox="0 0 90 90" fill="none" xmlns="http://www.w3.org/2000/svg">
<g clip-path="url(#clip0_28_7)" filter="url(#filter0_d_28_7)">
<path d="M60.9375 5H29.0625C21.296 5 15 11.296 15 19.0625V50.9375C15 58.704 21.296 65 29.0625 65H60.9375C68.704 65 75 58.704 75 50.9375V19.0625C75 11.296 68.704 5 60.9375 5Z" fill="url(#paint0_radial_28_7)"/>
<path d="M60.9375 5H29.0625C21.296 5 15 11.296 15 19.0625V50.9375C15 58.704 21.296 65 29.0625 65H60.9375C68.704 65 75 58.704 75 50.9375V19.0625C75 11.296 68.704 5 60.9375 5Z" fill="url(#paint1_radial_28_7)"/>
<path d="M45.0021 11.5625C38.637 11.5625 37.838 11.5904 35.3381 11.7041C32.843 11.8184 31.1398 12.2134 29.6496 12.793C28.1079 13.3916 26.8003 14.1924 25.4977 15.4955C24.1938 16.7984 23.393 18.106 22.7925 19.647C22.2113 21.1377 21.8159 22.8416 21.7036 25.3355C21.5918 27.8356 21.5625 28.6348 21.5625 35.0002C21.5625 41.3656 21.5906 42.162 21.7041 44.6619C21.8189 47.157 22.2138 48.8602 22.793 50.3504C23.392 51.8921 24.1929 53.1997 25.496 54.5023C26.7984 55.8062 28.106 56.6089 29.6466 57.2075C31.1379 57.7871 32.8413 58.182 35.336 58.2964C37.8361 58.4101 38.6344 58.438 44.9993 58.438C51.3652 58.438 52.1616 58.4101 54.6614 58.2964C57.1566 58.182 58.8616 57.7871 60.353 57.2075C61.894 56.6089 63.1997 55.8062 64.5019 54.5023C65.8057 53.1997 66.6063 51.8921 67.207 50.3511C67.7831 48.8602 68.1787 47.1566 68.2959 44.6623C68.4082 42.1625 68.4375 41.3656 68.4375 35.0002C68.4375 28.6348 68.4082 27.8361 68.2959 25.336C68.1787 22.8409 67.7831 21.1379 67.207 19.6477C66.6063 18.106 65.8057 16.7984 64.5019 15.4955C63.1983 14.192 61.8945 13.3911 60.3516 12.7932C58.8574 12.2134 57.1533 11.8182 54.6581 11.7041C52.158 11.5904 51.3621 11.5625 44.9948 11.5625H45.0021ZM42.8995 15.7862C43.5237 15.7852 44.22 15.7862 45.0021 15.7862C51.2602 15.7862 52.0017 15.8087 54.473 15.9209C56.7581 16.0255 57.9984 16.4073 58.8246 16.7281C59.9184 17.1528 60.6982 17.6607 61.518 18.4813C62.3384 19.3016 62.846 20.0827 63.2719 21.1766C63.5927 22.0016 63.975 23.2419 64.0791 25.527C64.1913 27.9978 64.2157 28.7398 64.2157 34.9948C64.2157 41.2498 64.1913 41.9921 64.0791 44.4627C63.9745 46.7478 63.5927 47.9881 63.2719 48.8134C62.8472 49.9072 62.3384 50.686 61.518 51.5059C60.6977 52.3262 59.9189 52.8338 58.8246 53.2588C57.9994 53.581 56.7581 53.9619 54.473 54.0664C52.0022 54.1787 51.2602 54.203 45.0021 54.203C38.7438 54.203 38.002 54.1787 35.5315 54.0664C33.2463 53.9609 32.006 53.5791 31.1791 53.2583C30.0855 52.8334 29.3041 52.3257 28.4838 51.5054C27.6635 50.6851 27.1559 49.9058 26.73 48.8115C26.4091 47.9863 26.0269 46.7459 25.9228 44.4608C25.8105 41.99 25.788 41.248 25.788 34.989C25.788 28.7302 25.8105 27.992 25.9228 25.5212C26.0273 23.236 26.4091 21.9957 26.73 21.1695C27.1549 20.0757 27.6635 19.2945 28.4841 18.4742C29.3044 17.6539 30.0855 17.146 31.1794 16.7204C32.0055 16.3981 33.2463 16.0173 35.5315 15.9123C37.6936 15.8145 38.5315 15.7852 42.8995 15.7803V15.7862ZM57.5131 19.6777C55.9603 19.6777 54.7006 20.9363 54.7006 22.4893C54.7006 24.042 55.9603 25.3018 57.5131 25.3018C59.0658 25.3018 60.3256 24.042 60.3256 22.4893C60.3256 20.9366 59.0658 19.6768 57.5131 19.6768V19.6777ZM45.0021 22.9639C38.3552 22.9639 32.966 28.3531 32.966 35.0002C32.966 41.6473 38.3552 47.034 45.0021 47.034C51.6492 47.034 57.0366 41.6473 57.0366 35.0002C57.0366 28.3534 51.6488 22.9639 45.0016 22.9639H45.0021ZM45.0021 27.1876C49.3167 27.1876 52.8148 30.6852 52.8148 35.0002C52.8148 39.3148 49.3167 42.8129 45.0021 42.8129C40.6873 42.8129 37.1897 39.3148 37.1897 35.0002C37.1897 30.6852 40.6873 27.1876 45.0021 27.1876Z" fill="white"/>
</g>
<defs>
<filter id="filter0_d_28_7" x="0" y="0" width="90" height="90" filterUnits="userSpaceOnUse" color-interpolation-filters="sRGB">
<feFlood flood-opacity="0" result="BackgroundImageFix"/>
<feColorMatrix in="SourceAlpha" type="matrix" values="0 0 0 0 0 0 0 0 0 0 0 0 0 0 0 0 0 0 127 0" result="hardAlpha"/>
<feOffset dy="10"/>
<feGaussianBlur stdDeviation="7.5"/>
<feColorMatrix type="matrix" values="0 0 0 0 1 0 0 0 0 0.705882 0 0 0 0 0.305882 0 0 0 0.5 0"/>
<feBlend mode="normal" in2="BackgroundImageFix" result="effect1_dropShadow_28_7"/>
<feBlend mode="normal" in="SourceGraphic" in2="effect1_dropShadow_28_7" result="shape"/>
</filter>
<radialGradient id="paint0_radial_28_7" cx="0" cy="0" r="1" gradientUnits="userSpaceOnUse" gradientTransform="translate(30.9375 69.6212) rotate(-90) scale(59.4645 55.3066)">
<stop stop-color="#FFDD55"/>
<stop offset="0.1" stop-color="#FFDD55"/>
<stop offset="0.5" stop-color="#FF543E"/>
<stop offset="1" stop-color="#C837AB"/>
</radialGradient>
<radialGradient id="paint1_radial_28_7" cx="0" cy="0" r="1" gradientUnits="userSpaceOnUse" gradientTransform="translate(4.94977 9.32211) rotate(78.681) scale(26.5809 109.567)">
<stop stop-color="#3771C8"/>
<stop offset="0.128" stop-color="#3771C8"/>
<stop offset="1" stop-color="#6600FF" stop-opacity="0"/>
</radialGradient>
<clipPath id="clip0_28_7">
<rect width="60" height="60" fill="white" transform="translate(15 5)"/>
</clipPath>
</defs>
</svg>
