<svg width="90" height="90" viewBox="0 0 90 90" fill="none" xmlns="http://www.w3.org/2000/svg">
<g clip-path="url(#clip0_28_13)" filter="url(#filter0_d_28_13)">
<path d="M16.2804 33.641C16.279 38.6821 17.6065 43.6045 20.1307 47.9431L16.039 62.7668L31.3278 58.7891C35.5564 61.0733 40.2943 62.2702 45.109 62.2705H45.1217C61.0158 62.2705 73.954 49.4373 73.9608 33.6635C73.9638 26.0201 70.9667 18.8326 65.5212 13.4252C60.0767 8.01819 52.8356 5.03889 45.1205 5.0354C29.2245 5.0354 16.2872 17.868 16.2806 33.641" fill="url(#paint0_linear_28_13)"/>
<path d="M15.2508 33.6316C15.2491 38.8542 16.6242 43.9526 19.2384 48.4465L15 63.8016L30.837 59.6814C35.2005 62.0421 40.1135 63.2867 45.1127 63.2886H45.1256C61.59 63.2886 74.993 49.9937 75 33.6553C75.0028 25.7372 71.8978 18.2914 66.2578 12.6902C60.6171 7.08977 53.1171 4.00326 45.1256 4C28.6584 4 15.2573 17.293 15.2508 33.6316ZM24.6823 47.6726L24.0909 46.7412C21.6052 42.8193 20.2931 38.2872 20.295 33.6335C20.3002 20.0533 31.4386 9.00465 45.135 9.00465C51.7678 9.00744 58.0013 11.573 62.6897 16.2279C67.3779 20.8833 69.9577 27.0716 69.956 33.6535C69.9499 47.2337 58.8112 58.2837 45.1256 58.2837H45.1158C40.6596 58.2814 36.2892 57.0939 32.4778 54.85L31.5708 54.3163L22.1728 56.7612L24.6823 47.6726Z" fill="url(#paint1_linear_28_13)"/>
<path d="M37.6589 21.2438C37.0997 20.0105 36.5112 19.9856 35.9794 19.964C35.5439 19.9454 35.0461 19.9468 34.5487 19.9468C34.0509 19.9468 33.2421 20.1326 32.5584 20.8733C31.8741 21.6147 29.9456 23.4063 29.9456 27.0503C29.9456 30.6945 32.6205 34.2161 32.9934 34.7108C33.3668 35.2045 38.1574 42.9217 45.7446 45.8905C52.0502 48.3577 53.3334 47.867 54.7019 47.7433C56.0707 47.6201 59.1185 45.9522 59.7403 44.2226C60.3626 42.4933 60.3626 41.011 60.176 40.7012C59.9894 40.3926 59.4916 40.2073 58.7451 39.837C57.9984 39.4666 54.3286 37.6747 53.6444 37.4275C52.9601 37.1805 52.4625 37.0573 51.9647 37.7989C51.4669 38.5394 50.0374 40.2073 49.6017 40.7012C49.1665 41.1963 48.7308 41.258 47.9845 40.8875C47.2376 40.5159 44.8336 39.7347 41.9815 37.2117C39.7624 35.2484 38.2643 32.824 37.8288 32.0824C37.3934 31.3419 37.7822 30.9405 38.1565 30.5715C38.4919 30.2396 38.9032 29.7066 39.2768 29.2742C39.649 28.8417 39.7732 28.5331 40.0221 28.0391C40.2712 27.5447 40.1466 27.1122 39.9602 26.7417C39.7732 26.3712 38.3226 22.7082 37.6589 21.2438Z" fill="white"/>
</g>
<defs>
<filter id="filter0_d_28_13" x="0" y="0" width="90" height="90" filterUnits="userSpaceOnUse" color-interpolation-filters="sRGB">
<feFlood flood-opacity="0" result="BackgroundImageFix"/>
<feColorMatrix in="SourceAlpha" type="matrix" values="0 0 0 0 0 0 0 0 0 0 0 0 0 0 0 0 0 0 127 0" result="hardAlpha"/>
<feOffset dy="11"/>
<feGaussianBlur stdDeviation="7.5"/>
<feColorMatrix type="matrix" values="0 0 0 0 0.376471 0 0 0 0 0.839216 0 0 0 0 0.411765 0 0 0 0.5 0"/>
<feBlend mode="normal" in2="BackgroundImageFix" result="effect1_dropShadow_28_13"/>
<feBlend mode="normal" in="SourceGraphic" in2="effect1_dropShadow_28_13" result="shape"/>
</filter>
<linearGradient id="paint0_linear_28_13" x1="2912.13" y1="5778.18" x2="2912.13" y2="5.0354" gradientUnits="userSpaceOnUse">
<stop stop-color="#1FAF38"/>
<stop offset="1" stop-color="#60D669"/>
</linearGradient>
<linearGradient id="paint1_linear_28_13" x1="3015" y1="5984.16" x2="3015" y2="4" gradientUnits="userSpaceOnUse">
<stop stop-color="#F9F9F9"/>
<stop offset="1" stop-color="white"/>
</linearGradient>
<clipPath id="clip0_28_13">
<rect width="60" height="60" fill="white" transform="translate(15 4)"/>
</clipPath>
</defs>
</svg>
